<?xml version="1.0" encoding="UTF-8"?>
<!DOCTYPE svg PUBLIC "-//W3C//DTD SVG 1.1//EN" "http://www.w3.org/Graphics/SVG/1.1/DTD/svg11.dtd">
<svg xmlns="http://www.w3.org/2000/svg" version="1.1" width="50px" height="50px" style="shape-rendering:geometricPrecision; text-rendering:geometricPrecision; image-rendering:optimizeQuality; fill-rule:evenodd; clip-rule:evenodd" xmlns:xlink="http://www.w3.org/1999/xlink">
<g><path style="opacity:0.834" fill="#fefffe" d="M -0.5,6.5 C 16.1667,6.5 32.8333,6.5 49.5,6.5C 49.5,8.5 49.5,10.5 49.5,12.5C 32.8333,12.5 16.1667,12.5 -0.5,12.5C -0.5,10.5 -0.5,8.5 -0.5,6.5 Z"/></g>
<g><path style="opacity:0.834" fill="#fefffe" d="M -0.5,21.5 C 16.1667,21.5 32.8333,21.5 49.5,21.5C 49.5,23.5 49.5,25.5 49.5,27.5C 32.8333,27.5 16.1667,27.5 -0.5,27.5C -0.5,25.5 -0.5,23.5 -0.5,21.5 Z"/></g>
<g><path style="opacity:0.834" fill="#fefffe" d="M -0.5,36.5 C 16.1667,36.5 32.8333,36.5 49.5,36.5C 49.5,38.5 49.5,40.5 49.5,42.5C 32.8333,42.5 16.1667,42.5 -0.5,42.5C -0.5,40.5 -0.5,38.5 -0.5,36.5 Z"/></g>
</svg>
